<svg version="1.1" viewBox="0.0 0.0 720.0 540.0" fill="none" stroke="none" stroke-linecap="square" stroke-miterlimit="10" xmlns:xlink="http://www.w3.org/1999/xlink" xmlns="http://www.w3.org/2000/svg"><clipPath id="p.0"><path d="m0 0l720.0 0l0 540.0l-720.0 0l0 -540.0z" clip-rule="nonzero"/></clipPath><g clip-path="url(#p.0)"><path fill="#000000" fill-opacity="0.0" d="m0 0l720.0 0l0 540.0l-720.0 0z" fill-rule="evenodd"/><path fill="#ffd966" d="m340.6833 169.62222l3.7212524 0l0 208.28348l-3.7212524 0z" fill-rule="evenodd"/><path stroke="#000000" stroke-width="1.0" stroke-linejoin="round" stroke-linecap="butt" d="m340.6833 169.62222l3.7212524 0l0 208.28348l-3.7212524 0z" fill-rule="evenodd"/><path fill="#ffd966" d="m313.10675 222.94232l0 0c5.080414 -5.3749847 14.143829 -4.500702 20.243652 1.9527588l0 0c6.0997925 6.453476 6.926178 16.042328 1.8457336 21.417328l0 0c-5.0804443 5.3749847 -14.143829 4.500702 -20.243652 -1.9527588l0 0c-6.099823 -6.453476 -6.926178 -16.042328 -1.8457336 -21.417328z" fill-rule="evenodd"/><path stroke="#000000" stroke-width="1.0" stroke-linejoin="round" stroke-linecap="butt" d="m313.10675 222.94232l0 0c5.080414 -5.3749847 14.143829 -4.500702 20.243652 1.9527588l0 0c6.0997925 6.453476 6.926178 16.042328 1.8457336 21.417328l0 0c-5.0804443 5.3749847 -14.143829 4.500702 -20.243652 -1.9527588l0 0c-6.099823 -6.453476 -6.926178 -16.042328 -1.8457336 -21.417328z" fill-rule="evenodd"/><path fill="#ffd966" d="m316.3205 184.82455l0 0c6.214905 -3.8094635 14.758484 -0.4956665 19.082611 7.4015656l0 0c4.324127 7.8972473 2.7913513 17.38739 -3.4235535 21.196854l0 0c-6.214905 3.8094635 -14.758484 0.4956665 -19.082611 -7.401581l0 0c-4.324127 -7.897232 -2.7913513 -17.38739 3.4235535 -21.196838z" fill-rule="evenodd"/><path stroke="#000000" stroke-width="1.0" stroke-linejoin="round" stroke-linecap="butt" d="m316.3205 184.82455l0 0c6.214905 -3.8094635 14.758484 -0.4956665 19.082611 7.4015656l0 0c4.324127 7.8972473 2.7913513 17.38739 -3.4235535 21.196854l0 0c-6.214905 3.8094635 -14.758484 0.4956665 -19.082611 -7.401581l0 0c-4.324127 -7.897232 -2.7913513 -17.38739 3.4235535 -21.196838z" fill-rule="evenodd"/><path fill="#ffe599" d="m317.4534 148.69992l0 0c6.4861755 -3.2615204 14.743195 0.77848816 18.442566 9.023621l0 0c3.6993408 8.245132 1.440155 17.57312 -5.0460205 20.834656l0 0c-6.486206 3.2615204 -14.743225 -0.77848816 -18.442566 -9.023621l0 0c-3.6993713 -8.245148 -1.4401855 -17.573135 5.0460205 -20.834656z" fill-rule="evenodd"/><path stroke="#000000" stroke-width="1.0" stroke-linejoin="round" stroke-linecap="butt" d="m317.4534 148.69992l0 0c6.4861755 -3.2615204 14.743195 0.77848816 18.442566 9.023621l0 0c3.6993408 8.245132 1.440155 17.57312 -5.0460205 20.834656l0 0c-6.486206 3.2615204 -14.743225 -0.77848816 -18.442566 -9.023621l0 0c-3.6993713 -8.245148 -1.4401855 -17.573135 5.0460205 -20.834656z" fill-rule="evenodd"/><path fill="#ffe599" d="m342.52924 119.90557l0 0c7.184967 0 13.016205 7.396118 13.024414 16.519691l0 0c0.0082092285 9.123566 -5.809662 16.519684 -12.994629 16.519684l0 0c-7.184967 0 -13.016205 -7.396118 -13.024414 -16.519684l0 0c-0.0082092285 -9.123573 5.809662 -16.519691 12.994629 -16.519691z" fill-rule="evenodd"/><path stroke="#000000" stroke-width="1.0" stroke-linejoin="round" stroke-linecap="butt" d="m342.52924 119.90557l0 0c7.184967 0 13.016205 7.396118 13.024414 16.519691l0 0c0.0082092285 9.123566 -5.809662 16.519684 -12.994629 16.519684l0 0c-7.184967 0 -13.016205 -7.396118 -13.024414 -16.519684l0 0c-0.0082092285 -9.123573 5.809662 -16.519691 12.994629 -16.519691z" fill-rule="evenodd"/><path fill="#ffd966" d="m370.72104 150.96085l0 0c5.507904 4.879242 5.481262 14.503357 -0.059539795 21.496063l0 0c-5.540802 6.9927063 -14.497589 8.706009 -20.005493 3.826767l0 0c-5.5079346 -4.8792267 -5.481262 -14.503342 0.059539795 -21.496063l0 0c5.540802 -6.9927063 14.497559 -8.706009 20.005493 -3.826767z" fill-rule="evenodd"/><path stroke="#000000" stroke-width="1.0" stroke-linejoin="round" stroke-linecap="butt" d="m370.72104 150.96085l0 0c5.507904 4.879242 5.481262 14.503357 -0.059539795 21.496063l0 0c-5.540802 6.9927063 -14.497589 8.706009 -20.005493 3.826767l0 0c-5.5079346 -4.8792267 -5.481262 -14.503342 0.059539795 -21.496063l0 0c5.540802 -6.9927063 14.497559 -8.706009 20.005493 -3.826767z" fill-rule="evenodd"/><path fill="#ffd966" d="m367.60934 184.31992l0 0c6.4368896 3.374588 8.556122 12.7378235 4.7334595 20.913376l0 0c-3.8226624 8.175552 -12.139648 12.067505 -18.576538 8.692917l0 0c-6.436859 -3.374588 -8.556091 -12.737839 -4.733429 -20.913391l0 0c3.8226624 -8.175552 12.139648 -12.067505 18.576508 -8.692902z" fill-rule="evenodd"/><path stroke="#000000" stroke-width="1.0" stroke-linejoin="round" stroke-linecap="butt" d="m367.60934 184.31992l0 0c6.4368896 3.374588 8.556122 12.7378235 4.7334595 20.913376l0 0c-3.8226624 8.175552 -12.139648 12.067505 -18.576538 8.692917l0 0c-6.436859 -3.374588 -8.556091 -12.737839 -4.733429 -20.913391l0 0c3.8226624 -8.175552 12.139648 -12.067505 18.576508 -8.692902z" fill-rule="evenodd"/><path fill="#ffd966" d="m371.71893 222.94244l0 0c5.0804443 5.3749847 4.260742 14.963852 -1.8308716 21.417313l0 0c-6.0915833 6.453476 -15.148315 7.327759 -20.22876 1.9527588l0 0c-5.0804443 -5.3749847 -4.260742 -14.963852 1.8308411 -21.417313l0 0c6.091614 -6.453476 15.148346 -7.327759 20.22879 -1.9527588z" fill-rule="evenodd"/><path stroke="#000000" stroke-width="1.0" stroke-linejoin="round" stroke-linecap="butt" d="m371.71893 222.94244l0 0c5.0804443 5.3749847 4.260742 14.963852 -1.8308716 21.417313l0 0c-6.0915833 6.453476 -15.148315 7.327759 -20.22876 1.9527588l0 0c-5.0804443 -5.3749847 -4.260742 -14.963852 1.8308411 -21.417313l0 0c6.091614 -6.453476 15.148346 -7.327759 20.22879 -1.9527588z" fill-rule="evenodd"/><path fill="#ffe599" d="m345.62073 286.0001l10.047394 -21.102356l9.273376 0.3779297l-20.094818 42.204742z" fill-rule="evenodd"/><path stroke="#000000" stroke-width="1.0" stroke-linejoin="round" stroke-linecap="butt" d="m345.62073 286.0001l10.047394 -21.102356l9.273376 0.3779297l-20.094818 42.204742z" fill-rule="evenodd"/><path fill="#ffe599" d="m374.56064 291.21375l-15.554871 -17.181091l3.438446 -9.51181l31.109741 34.362213z" fill-rule="evenodd"/><path stroke="#000000" stroke-width="1.0" stroke-linejoin="round" stroke-linecap="butt" d="m374.56064 291.21375l-15.554871 -17.181091l3.438446 -9.51181l31.109741 34.362213z" fill-rule="evenodd"/></g></svg>